<svg xmlns="http://www.w3.org/2000/svg" xmlns:xlink="http://www.w3.org/1999/xlink" viewBox="0 0 583.46 148.78"><defs><style>.cls-1{isolation:isolate;}.cls-2{fill:#acacab;}.cls-3{fill:#1d1d1b;}.cls-4{fill:url(#Degradado_sin_nombre_16);}.cls-5{mix-blend-mode:multiply;}.cls-6{fill:#0b0bd6;}.cls-7{fill:#fff;}.cls-8{fill:#1d1d1d;}</style><linearGradient id="Degradado_sin_nombre_16" x1="58.16" y1="148.78" x2="58.16" y2="19.05" gradientUnits="userSpaceOnUse"><stop offset="0" stop-color="#7000f8"/><stop offset="1" stop-color="#2700f9"/></linearGradient></defs><title>design-by-regular</title><g class="cls-1"><g id="Capa_2" data-name="Capa 2"><g id="design-by-regular"><g id="design-by-regular-2" data-name="design-by-regular"><path class="cls-2" d="M155.79,13h-.32c-.27-.43-.66-1-1.15-1.63a6.51,6.51,0,0,0-2.13-1.78,7.6,7.6,0,0,0-3.77-.79A9.68,9.68,0,0,0,143,10.38a10.29,10.29,0,0,0-3.67,4.37A15.67,15.67,0,0,0,138,21.43a15.83,15.83,0,0,0,1.32,6.72A10.36,10.36,0,0,0,143,32.53a9.49,9.49,0,0,0,5.39,1.55,7.8,7.8,0,0,0,3.77-.78,7,7,0,0,0,2.18-1.8,19.37,19.37,0,0,0,1.17-1.68h.45v3.76h3.62V1h-3.75ZM155,26.24a7.38,7.38,0,0,1-2.36,3.29,6.81,6.81,0,0,1-7.75-.06,7.68,7.68,0,0,1-2.39-3.37,13.45,13.45,0,0,1-.8-4.73,12.89,12.89,0,0,1,.79-4.65,7.25,7.25,0,0,1,2.36-3.29,7,7,0,0,1,7.82-.07,7,7,0,0,1,2.35,3.21,13.3,13.3,0,0,1,.8,4.8A13.33,13.33,0,0,1,155,26.24Z"/><path class="cls-2" d="M183.93,11.53a9.64,9.64,0,0,0-3.39-2.06,11.64,11.64,0,0,0-3.76-.63A10.37,10.37,0,0,0,171,10.45a10.79,10.79,0,0,0-3.85,4.49,15.09,15.09,0,0,0-1.37,6.62,14.78,14.78,0,0,0,1.37,6.57,10.41,10.41,0,0,0,3.93,4.39,11.41,11.41,0,0,0,6.08,1.56,12.1,12.1,0,0,0,4.46-.77A9.1,9.1,0,0,0,185,31.15a8,8,0,0,0,1.93-3.23l-3.63-1A5.76,5.76,0,0,1,181.91,29a5.49,5.49,0,0,1-2.07,1.27,8.1,8.1,0,0,1-2.68.42,7.82,7.82,0,0,1-4-1,6.71,6.71,0,0,1-2.68-2.91,10.05,10.05,0,0,1-.94-4.17h17.72V21.05a15.89,15.89,0,0,0-.91-5.76A9.88,9.88,0,0,0,183.93,11.53Zm-14.37,7.86a8.31,8.31,0,0,1,.84-3.21,7.39,7.39,0,0,1,2.51-2.87,6.75,6.75,0,0,1,3.87-1.1,6.49,6.49,0,0,1,3.53.94,6.18,6.18,0,0,1,2.32,2.56,8,8,0,0,1,.82,3.68Z"/><path class="cls-2" d="M204.25,20.16l-3.63-.89a8.53,8.53,0,0,1-3.18-1.35,2.67,2.67,0,0,1-1-2.21,3.05,3.05,0,0,1,1.48-2.6,6.38,6.38,0,0,1,3.73-1,6,6,0,0,1,2.69.53A4.72,4.72,0,0,1,206,13.93a7.2,7.2,0,0,1,.93,1.65l3.37-.95a8.66,8.66,0,0,0-2.95-4.2,9.15,9.15,0,0,0-5.7-1.59,11.2,11.2,0,0,0-4.6.9,7.92,7.92,0,0,0-3.2,2.5,6,6,0,0,0-1.17,3.66,5.94,5.94,0,0,0,1.57,4.2,9.57,9.57,0,0,0,4.92,2.47l4.07,1A5.7,5.7,0,0,1,206,24.82a2.85,2.85,0,0,1,.89,2.14,3.26,3.26,0,0,1-1.55,2.7,7,7,0,0,1-4.17,1.12,6.4,6.4,0,0,1-3.73-1,4.93,4.93,0,0,1-1.93-3l-3.56.89a7.18,7.18,0,0,0,3.1,4.74,11,11,0,0,0,6.18,1.62,12.19,12.19,0,0,0,5-.95,8,8,0,0,0,3.34-2.61,6.22,6.22,0,0,0,1.2-3.75,5.72,5.72,0,0,0-1.6-4.19A10.11,10.11,0,0,0,204.25,20.16Z"/><rect class="cls-2" x="216.39" y="9.16" width="3.75" height="24.42"/><path class="cls-2" d="M218.3,0a2.66,2.66,0,0,0-1.89.75,2.39,2.39,0,0,0-.78,1.79,2.41,2.41,0,0,0,.78,1.8,2.66,2.66,0,0,0,1.89.75,2.62,2.62,0,0,0,1.88-.75,2.38,2.38,0,0,0,.79-1.8,2.36,2.36,0,0,0-.79-1.79A2.62,2.62,0,0,0,218.3,0Z"/><path class="cls-2" d="M243.8,13h-.38c-.28-.43-.67-1-1.17-1.63a6.87,6.87,0,0,0-2.16-1.78,7.76,7.76,0,0,0-3.8-.79,9.74,9.74,0,0,0-5.43,1.53,10.3,10.3,0,0,0-3.67,4.33,15.15,15.15,0,0,0-1.32,6.54,14.1,14.1,0,0,0,1.36,6.48,9.65,9.65,0,0,0,3.7,4.07,10.07,10.07,0,0,0,5.3,1.4,8.07,8.07,0,0,0,3.79-.75,6.55,6.55,0,0,0,2.16-1.73,18.13,18.13,0,0,0,1.17-1.65h.32v5a5.21,5.21,0,0,1-1.92,4.48,7.93,7.93,0,0,1-4.88,1.43,8.36,8.36,0,0,1-3.57-.64,6.62,6.62,0,0,1-2.14-1.51q-.78-.87-1.29-1.53l-3,2.09a9.79,9.79,0,0,0,5.31,4.21,14.16,14.16,0,0,0,4.68.69,14.51,14.51,0,0,0,5.31-.93A8.26,8.26,0,0,0,246,39.4a8.58,8.58,0,0,0,1.42-5.13V9.16H243.8Zm-.88,12.78a6.47,6.47,0,0,1-2.36,3,7.6,7.6,0,0,1-7.76-.07,6.87,6.87,0,0,1-2.38-3,11.83,11.83,0,0,1-.8-4.49,12.33,12.33,0,0,1,.79-4.52,7.2,7.2,0,0,1,2.36-3.24,7.09,7.09,0,0,1,7.82-.07,7,7,0,0,1,2.35,3.17,12.64,12.64,0,0,1,.8,4.66A12,12,0,0,1,242.92,25.82Z"/><path class="cls-2" d="M269.7,9.85a9,9,0,0,0-4.34-1A8.14,8.14,0,0,0,260.84,10a7.06,7.06,0,0,0-2.61,3h-.31V9.16h-3.63V33.58H258V18.89a7.55,7.55,0,0,1,.81-3.63A5.58,5.58,0,0,1,261.07,13a6.52,6.52,0,0,1,3.21-.78,5.35,5.35,0,0,1,4.1,1.61,6.4,6.4,0,0,1,1.49,4.49V33.58h3.75V18.06a11.37,11.37,0,0,0-1-5.16A6.9,6.9,0,0,0,269.7,9.85Z"/><path class="cls-2" d="M310.15,10.38a9.65,9.65,0,0,0-5.43-1.54,7.65,7.65,0,0,0-3.78.79,6.62,6.62,0,0,0-2.13,1.78c-.49.66-.88,1.2-1.15,1.63h-.32V1h-3.75V33.58h3.62V29.82h.45a19.83,19.83,0,0,0,1.18,1.68A6.86,6.86,0,0,0,301,33.3a7.83,7.83,0,0,0,3.77.78,9.47,9.47,0,0,0,5.39-1.55,10.31,10.31,0,0,0,3.66-4.38,15.83,15.83,0,0,0,1.32-6.72,15.67,15.67,0,0,0-1.32-6.68A10.31,10.31,0,0,0,310.15,10.38Zm.44,15.72a7.66,7.66,0,0,1-2.38,3.37,6.19,6.19,0,0,1-3.94,1.24,6.11,6.11,0,0,1-3.81-1.18,7.32,7.32,0,0,1-2.37-3.29,13.55,13.55,0,0,1-.81-4.87,13.31,13.31,0,0,1,.79-4.8,7,7,0,0,1,2.36-3.21,7,7,0,0,1,7.81.07,7.34,7.34,0,0,1,2.37,3.29,13.11,13.11,0,0,1,.79,4.65A13.23,13.23,0,0,1,310.59,26.1Z"/><path class="cls-2" d="M335.88,9.16l-6.74,19.46h-.26L322.14,9.16h-4.07l9,24.54-.7,1.91c-.67,1.82-1.46,2.92-2.37,3.28a5.47,5.47,0,0,1-3.42,0l-.95,3.3a4.4,4.4,0,0,0,1,.3,8.74,8.74,0,0,0,1.7.15,7.38,7.38,0,0,0,3.07-.61,6.63,6.63,0,0,0,2.39-1.83,10.57,10.57,0,0,0,1.73-3.09L340,9.22Z"/><path class="cls-3" d="M175.3,52.3q-5.2-2.88-13.12-2.88H138v67.87h10.24V93.43h13.92q7.88,0,13.1-2.9a19,19,0,0,0,7.82-7.89,23.92,23.92,0,0,0,2.6-11.25,24.09,24.09,0,0,0-2.58-11.22A18.75,18.75,0,0,0,175.3,52.3Zm-1.39,26A10.74,10.74,0,0,1,169.34,83a16.6,16.6,0,0,1-8.12,1.74h-13V58.2h12.85a17.29,17.29,0,0,1,8.24,1.69,10.46,10.46,0,0,1,4.59,4.67,15.41,15.41,0,0,1,1.46,6.83A15.6,15.6,0,0,1,173.91,78.25Z"/><rect class="cls-3" x="196.84" y="49.42" width="9.91" height="67.87"/><path class="cls-3" d="M253.16,69a19.22,19.22,0,0,0-6.43-2.6,31.65,31.65,0,0,0-6.48-.72A29.25,29.25,0,0,0,231.47,67a19.76,19.76,0,0,0-7.37,4.18,17.94,17.94,0,0,0-4.86,7.5l9.31,2.12a11.88,11.88,0,0,1,4-4.88c1.91-1.47,4.54-2.21,7.87-2.21s5.62.8,7.24,2.39a9,9,0,0,1,2.44,6.72v.24a2.8,2.8,0,0,1-1.29,2.58,10.76,10.76,0,0,1-4.14,1.14c-1.91.24-4.38.53-7.43.88A63.66,63.66,0,0,0,230.11,89a23.42,23.42,0,0,0-6.3,2.45,12.43,12.43,0,0,0-4.47,4.41,13.75,13.75,0,0,0-1.66,7.09,15,15,0,0,0,2.27,8.45,14.63,14.63,0,0,0,6.18,5.26,20.71,20.71,0,0,0,8.75,1.8,19.32,19.32,0,0,0,7.23-1.22A15.28,15.28,0,0,0,247,114.1a13.83,13.83,0,0,0,2.89-3.77h.4v7H260V83.48a18.74,18.74,0,0,0-1.92-9.06A14.36,14.36,0,0,0,253.16,69Zm-3.07,29.89a11,11,0,0,1-1.54,5.65,11.56,11.56,0,0,1-4.47,4.26,14.36,14.36,0,0,1-7,1.62,11.93,11.93,0,0,1-6.93-1.87,6.31,6.31,0,0,1-2.72-5.55,6.22,6.22,0,0,1,1.41-4.26,9,9,0,0,1,3.78-2.47,24.34,24.34,0,0,1,5.25-1.23l3-.41c1.22-.17,2.46-.35,3.75-.56a28,28,0,0,0,3.43-.77,5.07,5.07,0,0,0,2-1Z"/><polygon class="cls-3" points="285.55 108.21 312.06 73.61 312.06 66.39 273.02 66.39 273.02 75 299.7 75 299.7 75.47 272.13 110.49 272.13 117.29 312.99 117.29 312.99 108.67 285.55 108.67 285.55 108.21"/><path class="cls-3" d="M378.14,65.72a17.74,17.74,0,0,0-9.48,2.44,14.42,14.42,0,0,0-5.8,6.51h-.53a14,14,0,0,0-5.12-6.56,14.73,14.73,0,0,0-8.56-2.39A15.39,15.39,0,0,0,340,68.09a13.23,13.23,0,0,0-5.21,6.58h-.63V66.39h-9.51v50.9h9.91V85.9A12.37,12.37,0,0,1,336,79.84a10.82,10.82,0,0,1,3.81-4.09A9.58,9.58,0,0,1,345,74.27a9.25,9.25,0,0,1,6.73,2.52,8.89,8.89,0,0,1,2.58,6.66v33.84h9.88V84.84a10.89,10.89,0,0,1,2.68-7.6,9.62,9.62,0,0,1,7.52-3,10.29,10.29,0,0,1,6.73,2.32c1.88,1.55,2.82,4,2.82,7.49v33.21h9.91V83.15q0-8.75-4.39-13.09A15.43,15.43,0,0,0,378.14,65.72Z"/><path class="cls-3" d="M444,71.62a20.2,20.2,0,0,0-7.26-4.47,24.93,24.93,0,0,0-8.35-1.43A22.61,22.61,0,0,0,416,69.07a22.38,22.38,0,0,0-8.22,9.31,30.82,30.82,0,0,0-2.94,13.79,30.5,30.5,0,0,0,2.94,13.8,21.49,21.49,0,0,0,8.35,9.11A24.73,24.73,0,0,0,429,118.31a27.18,27.18,0,0,0,9.92-1.7,19.44,19.44,0,0,0,7.26-4.81,16.94,16.94,0,0,0,4-7.24l-9.38-1.69a10.65,10.65,0,0,1-2.59,4,11,11,0,0,1-4,2.44,15.42,15.42,0,0,1-5.13.81,15,15,0,0,1-7.59-1.87,12.68,12.68,0,0,1-5.05-5.46,18.63,18.63,0,0,1-1.78-8h36.16V91.3A33.05,33.05,0,0,0,449,79.52,21.12,21.12,0,0,0,444,71.62ZM414.74,87.4a15.22,15.22,0,0,1,1.62-6.15,13.7,13.7,0,0,1,4.78-5.3,12.91,12.91,0,0,1,7.27-2,12.59,12.59,0,0,1,6.71,1.75,12.18,12.18,0,0,1,4.46,4.79,14.75,14.75,0,0,1,1.59,7Z"/><path class="cls-3" d="M496.28,74.64h-.6a32.22,32.22,0,0,0-2.5-3.68,14.06,14.06,0,0,0-4.51-3.66A16,16,0,0,0,481,65.72a19.81,19.81,0,0,0-11,3.12,21,21,0,0,0-7.6,9,32.76,32.76,0,0,0-2.77,14.11,33.36,33.36,0,0,0,2.73,14.14,21.28,21.28,0,0,0,7.56,9.05,19.57,19.57,0,0,0,11,3.16,16,16,0,0,0,7.55-1.56,14.47,14.47,0,0,0,4.59-3.64,26.88,26.88,0,0,0,2.57-3.71h.83v7.92h9.67V49.42h-9.9Zm-1.38,26.61a14,14,0,0,1-4.51,6.31,12.71,12.71,0,0,1-14.64-.1,14.47,14.47,0,0,1-4.53-6.45,26.13,26.13,0,0,1-1.52-9.17,25.45,25.45,0,0,1,1.51-9,14.05,14.05,0,0,1,4.49-6.33,13.1,13.1,0,0,1,14.74-.1,13.66,13.66,0,0,1,4.48,6.2,26,26,0,0,1,1.52,9.28A26.33,26.33,0,0,1,494.9,101.25Z"/><rect class="cls-3" x="520.3" y="66.39" width="9.91" height="50.9"/><path class="cls-3" d="M581.54,74.42A14.36,14.36,0,0,0,576.62,69a19.22,19.22,0,0,0-6.43-2.6,31.65,31.65,0,0,0-6.48-.72A29.25,29.25,0,0,0,554.93,67a19.76,19.76,0,0,0-7.37,4.18,17.94,17.94,0,0,0-4.86,7.5L552,80.83A11.88,11.88,0,0,1,556,76c1.91-1.47,4.54-2.21,7.87-2.21s5.62.8,7.24,2.39a9,9,0,0,1,2.44,6.72v.24a2.8,2.8,0,0,1-1.29,2.58,10.7,10.7,0,0,1-4.14,1.14q-2.85.36-7.43.88A63.66,63.66,0,0,0,553.57,89a23.42,23.42,0,0,0-6.3,2.45,12.43,12.43,0,0,0-4.47,4.41,13.75,13.75,0,0,0-1.66,7.09,15,15,0,0,0,2.27,8.45,14.6,14.6,0,0,0,6.19,5.26,20.64,20.64,0,0,0,8.74,1.8,19.32,19.32,0,0,0,7.23-1.22,15.44,15.44,0,0,0,4.94-3.09,14,14,0,0,0,2.88-3.77h.4v7h9.67V83.48A18.74,18.74,0,0,0,581.54,74.42Zm-8,24.51a11,11,0,0,1-1.54,5.65,11.56,11.56,0,0,1-4.47,4.26,14.36,14.36,0,0,1-7,1.62,11.93,11.93,0,0,1-6.93-1.87,6.31,6.31,0,0,1-2.72-5.55,6.22,6.22,0,0,1,1.41-4.26A9,9,0,0,1,556,96.31a24.34,24.34,0,0,1,5.25-1.23l3.05-.41c1.22-.17,2.46-.35,3.75-.56a28,28,0,0,0,3.43-.77,5.07,5.07,0,0,0,2-1Z"/><path class="cls-4" d="M116.31,58.89V109a14.77,14.77,0,0,1-7.4,12.81l-1.8,1-.83.48-.17.1-13,7.54-2.63,1.51L65.56,146.79a14.77,14.77,0,0,1-14.8,0l-43.36-25A14.81,14.81,0,0,1,0,109V58.89A14.8,14.8,0,0,1,7.4,46.07L50.76,21a14.82,14.82,0,0,1,14.8,0l43.35,25A14.76,14.76,0,0,1,116.31,58.89Z"/><g class="cls-5"><path class="cls-6" d="M41,59.53l-24.3,24.3a5.5,5.5,0,0,0,0,7.78L24.05,99,52.24,70.81Z"/><path class="cls-6" d="M82.17,66.92l-7.38-7.39L52.24,82.08,63.51,93.36,82.17,74.7A5.5,5.5,0,0,0,82.17,66.92Z"/><path class="cls-6" d="M46.6,87.72,29.69,104.63,54,128.93a5.5,5.5,0,0,0,7.78,0l9.14-9.13a5.5,5.5,0,0,0,0-7.78Z"/><path class="cls-6" d="M69.15,53.9l-7.39-7.39a5.5,5.5,0,0,0-7.78,0L46.6,53.9,57.87,65.17Z"/></g><path class="cls-7" d="M44.77,55.73,20.47,80a5.49,5.49,0,0,0,0,7.77l7.39,7.39L56,67Z"/><path class="cls-7" d="M86,63.11l-7.39-7.38L56,78.28,67.32,89.55,86,70.89A5.5,5.5,0,0,0,86,63.11Z"/><path class="cls-7" d="M50.4,83.91,33.49,100.83l24.3,24.3a5.52,5.52,0,0,0,7.78,0L74.7,116a5.5,5.5,0,0,0,0-7.78Z"/><path class="cls-7" d="M73,50.09,65.57,42.7a5.5,5.5,0,0,0-7.78,0L50.4,50.09,61.68,61.36Z"/><path class="cls-8" d="M92.1,137.9v-1.23h6.47v1.23H96.06v6.88H94.6V137.9Z"/><path class="cls-8" d="M99.81,136.67h1.8l2.4,5.87h.1l2.4-5.87h1.8v8.11H106.9v-5.57h-.07l-2.24,5.54h-1.06l-2.24-5.56h-.07v5.59H99.81Z"/></g></g></g></g></svg>