<svg xmlns="http://www.w3.org/2000/svg" xmlns:xlink="http://www.w3.org/1999/xlink" viewBox="0 0 529.18 136.09"><defs><style>.cls-1{fill:#220047;}.cls-2{fill:#7b05e2;}.cls-3{fill:#fff;}.cls-4{fill:url(#Degradado_sin_nombre_5);}.cls-5{fill:url(#Degradado_sin_nombre_5-2);}.cls-6{fill:#8332ed;}</style><linearGradient id="Degradado_sin_nombre_5" x1="35.19" y1="122.28" x2="80.37" y2="24.16" gradientUnits="userSpaceOnUse"><stop offset="0" stop-color="#9633ff"/><stop offset="1" stop-color="#c12bff"/></linearGradient><linearGradient id="Degradado_sin_nombre_5-2" x1="94.1" y1="149.4" x2="139.28" y2="51.28" xlink:href="#Degradado_sin_nombre_5"/></defs><title>imagotype-color</title><g id="Capa_2" data-name="Capa 2"><g id="Capa_1-2" data-name="Capa 1"><g id="imagotype-color"><g id="imagotype-dark"><path class="cls-1" d="M175.92,50.06a19.47,19.47,0,0,1,7.33,7.86,24.8,24.8,0,0,1,2.66,11.68,25.2,25.2,0,0,1-2.66,11.74,19.41,19.41,0,0,1-7.33,7.93,20.51,20.51,0,0,1-10.77,2.8,21.56,21.56,0,0,1-8.24-1.52,14.91,14.91,0,0,1-4.2-2.57,1,1,0,0,0-1.67.73v20.53a1,1,0,0,1-1,1h-8.5a1,1,0,0,1-1-1V49.6a1,1,0,0,1,1-1h6.82a1,1,0,0,1,1,.87l.37,2.83a1,1,0,0,0,1.71.56,16.19,16.19,0,0,1,4.88-3.61,19.93,19.93,0,0,1,9-2A20.25,20.25,0,0,1,175.92,50.06Zm-4.09,28.88a13.19,13.19,0,0,0,3.26-9.25,13.24,13.24,0,0,0-3.26-9.32,11.13,11.13,0,0,0-8.58-3.54,11.27,11.27,0,0,0-8.63,3.54,13.25,13.25,0,0,0-3.3,9.41A12.9,12.9,0,0,0,154.6,79a12.32,12.32,0,0,0,17.23-.09Z"/><path class="cls-1" d="M192.2,25.85h8.59a1,1,0,0,1,1,1v63a1,1,0,0,1-1,1H192.2a1,1,0,0,1-1-1v-63A1,1,0,0,1,192.2,25.85Z"/><path class="cls-1" d="M252.45,49.6V89.82a1,1,0,0,1-1,1h-8.12a1,1,0,0,1-1-1V87.67a1,1,0,0,0-1.72-.68,16.06,16.06,0,0,1-4.5,3.14,20.73,20.73,0,0,1-9,1.94,19.79,19.79,0,0,1-10.43-2.75,18.39,18.39,0,0,1-7-7.77,25.82,25.82,0,0,1-2.5-11.68A25.67,25.67,0,0,1,209.73,58a19,19,0,0,1,7.37-7.95A21,21,0,0,1,228,47.26,20.7,20.7,0,0,1,236.66,49a15.31,15.31,0,0,1,4.78,3.32,1,1,0,0,0,1.69-.55l.36-2.34a1,1,0,0,1,1-.85h7A1,1,0,0,1,252.45,49.6ZM238.37,78.89a13.21,13.21,0,0,0,3.36-9.39,13.06,13.06,0,0,0-3.26-9.27,11.35,11.35,0,0,0-8.68-3.49,11.2,11.2,0,0,0-8.66,3.54,13.18,13.18,0,0,0-3.27,9.32,13.25,13.25,0,0,0,3.29,9.34,11.11,11.11,0,0,0,8.55,3.56A11.27,11.27,0,0,0,238.37,78.89Z"/><path class="cls-1" d="M258,81.34l19.23-21.83a1,1,0,0,0-.75-1.66H258.75a1,1,0,0,1-1-1V49.6a1,1,0,0,1,1-1h32.08a1,1,0,0,1,1,1v8a1,1,0,0,1-.26.67l-19.5,21.53a1,1,0,0,0,.74,1.68h18a1,1,0,0,1,1,1v7.38a1,1,0,0,1-1,1H258.75a1,1,0,0,1-1-1V82A1,1,0,0,1,258,81.34Z"/><path class="cls-1" d="M357.8,51.47Q362,55.69,362,63V89.82a1,1,0,0,1-1,1h-8.5a1,1,0,0,1-1-1V65.53q0-4.53-2.15-6.8a7.52,7.52,0,0,0-5.71-2.27,8.16,8.16,0,0,0-6.5,2.69A10,10,0,0,0,334.81,66V89.82a1,1,0,0,1-1,1h-8.4a1,1,0,0,1-1-1V65.53a9.56,9.56,0,0,0-2.17-6.66,7.62,7.62,0,0,0-6-2.41,7.78,7.78,0,0,0-6.22,2.73,10.08,10.08,0,0,0-2.33,6.8V89.82a1,1,0,0,1-1,1h-8.59a1,1,0,0,1-1-1V49.6a1,1,0,0,1,1-1h7.78a1,1,0,0,1,1,.88l.17,1.38a1,1,0,0,0,1.68.59,13.83,13.83,0,0,1,3.75-2.62,15.83,15.83,0,0,1,7-1.57,16.16,16.16,0,0,1,8.28,2.13,12.48,12.48,0,0,1,4.45,4.26,1,1,0,0,0,1.7,0,13.69,13.69,0,0,1,4.58-4.34,16.16,16.16,0,0,1,8.28-2.08A14.93,14.93,0,0,1,357.8,51.47Z"/><path class="cls-1" d="M402.82,88.09a23.08,23.08,0,0,1-13.55,4,22.77,22.77,0,0,1-11.49-2.84,19.81,19.81,0,0,1-7.73-8A24.47,24.47,0,0,1,367.3,69.5a23.63,23.63,0,0,1,2.8-11.72A19.76,19.76,0,0,1,377.82,50,22.55,22.55,0,0,1,389,47.26a22.21,22.21,0,0,1,10.89,2.61A18.68,18.68,0,0,1,407.21,57a20.55,20.55,0,0,1,2.59,10.4,27.7,27.7,0,0,1-.3,4.38,1,1,0,0,1-1,.85H378.79a1,1,0,0,0-1,1.14,10.4,10.4,0,0,0,3.27,6.6,11.59,11.59,0,0,0,8.21,2.94,13.47,13.47,0,0,0,6.54-1.5,8,8,0,0,0,3.51-3.58,1,1,0,0,1,.92-.61h8.36a1,1,0,0,1,1,1.3A16.64,16.64,0,0,1,402.82,88.09ZM398,65.53a1,1,0,0,0,1-1.13,8.88,8.88,0,0,0-2.86-5.88A10.61,10.61,0,0,0,388.71,56a11.23,11.23,0,0,0-7.63,2.61A9.08,9.08,0,0,0,378,64.38a1,1,0,0,0,1,1.15Z"/><path class="cls-1" d="M460.55,26.85v63a1,1,0,0,1-1,1H452.6a1,1,0,0,1-1-.88l-.33-2.79a1,1,0,0,0-1.73-.55,14.91,14.91,0,0,1-4.68,3.48,20.1,20.1,0,0,1-9.06,2,20.39,20.39,0,0,1-10.66-2.8,19.25,19.25,0,0,1-7.33-7.9,25.41,25.41,0,0,1-2.63-11.77,25,25,0,0,1,2.63-11.68,19.27,19.27,0,0,1,7.33-7.86,20.39,20.39,0,0,1,10.66-2.8,21.67,21.67,0,0,1,8.28,1.5,15.64,15.64,0,0,1,4.28,2.6A1,1,0,0,0,450,50.6V26.85a1,1,0,0,1,1-1h8.54A1,1,0,0,1,460.55,26.85Zm-14.08,52a13.25,13.25,0,0,0,3.35-9.39,13.06,13.06,0,0,0-3.26-9.27,12.45,12.45,0,0,0-17.34.05A13.22,13.22,0,0,0,426,69.6a13.24,13.24,0,0,0,3.28,9.34,11.13,11.13,0,0,0,8.56,3.56A11.3,11.3,0,0,0,446.47,78.89Z"/><path class="cls-1" d="M467.92,38.29a6.8,6.8,0,0,1-2.07-5,6.7,6.7,0,0,1,2.07-5,7.37,7.37,0,0,1,5.32-2,7.13,7.13,0,0,1,5.25,2,7.17,7.17,0,0,1-.07,10,7,7,0,0,1-5.18,2.09A7.29,7.29,0,0,1,467.92,38.29Zm1,10.31h8.6a1,1,0,0,1,1,1V89.82a1,1,0,0,1-1,1h-8.6a1,1,0,0,1-1-1V49.6A1,1,0,0,1,468.92,48.6Z"/><path class="cls-1" d="M529.18,49.6V89.82a1,1,0,0,1-1,1h-8.13a1,1,0,0,1-1-1V87.67a1,1,0,0,0-1.72-.69,15.89,15.89,0,0,1-4.5,3.15,20.69,20.69,0,0,1-9,1.94,19.81,19.81,0,0,1-10.43-2.75,18.39,18.39,0,0,1-7.05-7.77,26,26,0,0,1-2.5-11.68A25.67,25.67,0,0,1,486.45,58a19,19,0,0,1,7.37-7.95,21,21,0,0,1,10.89-2.8A20.7,20.7,0,0,1,513.38,49a15.31,15.31,0,0,1,4.78,3.32,1,1,0,0,0,1.69-.55l.36-2.34a1,1,0,0,1,1-.85h7A1,1,0,0,1,529.18,49.6ZM515.09,78.89a13.21,13.21,0,0,0,3.36-9.39,13.06,13.06,0,0,0-3.26-9.27,12.45,12.45,0,0,0-17.34.05,13.17,13.17,0,0,0-3.26,9.32,13.24,13.24,0,0,0,3.28,9.34,11.11,11.11,0,0,0,8.56,3.56A11.26,11.26,0,0,0,515.09,78.89Z"/></g><path class="cls-2" d="M519.14,102.8h-2.7v7.44h-1.63V102.8h-2.72v-1.48h7Z"/><path class="cls-2" d="M529.1,101.32v8.92h-1.6v-2c0-1.1,0-2.22.14-3.35L525.38,110h-1.46l-2.16-5c.11,1.16.16,2.27.16,3.31v2h-1.58v-8.92h1.48l2.88,6.87,2.93-6.87Z"/><path class="cls-3" d="M46,37.12,20.44,62.7a5.81,5.81,0,0,0,0,8.2l7.78,7.77L57.9,49Z"/><path class="cls-3" d="M89.42,44.9l-7.78-7.78L57.9,60.86,69.77,72.74,89.42,53.09A5.79,5.79,0,0,0,89.42,44.9Z"/><path class="cls-3" d="M52,66.8,34.15,84.61,59.74,110.2a5.79,5.79,0,0,0,8.19,0l9.62-9.62a5.79,5.79,0,0,0,0-8.19Z"/><path class="cls-3" d="M75.71,31.18,67.93,23.4a5.79,5.79,0,0,0-8.19,0L52,31.18,63.83,43.05Z"/><path class="cls-4" d="M119.75,41V92.55a15.27,15.27,0,0,1-7.62,13.2l-1.85,1.06-.87.5-.16.1a23.07,23.07,0,0,0-5.22,4.25,10.18,10.18,0,0,0-1.73,11c1.21,2.71,2.62,4.42,2.62,7.87a5.39,5.39,0,0,1-1.86,4.29,5.53,5.53,0,0,1-7.17,0A5.39,5.39,0,0,1,94,130.48c0-5.24,3.26-6.47,4.12-13.34a4,4,0,0,0,0-.71,1.57,1.57,0,0,0-2.36-1.26L67.49,131.52a15.25,15.25,0,0,1-15.24,0L7.62,105.75A15.27,15.27,0,0,1,0,92.55V41a15.26,15.26,0,0,1,7.62-13.2L52.25,2A15.25,15.25,0,0,1,67.49,2l44.64,25.77A15.26,15.26,0,0,1,119.75,41Z"/><path class="cls-5" d="M108.46,111.1a11.36,11.36,0,0,0-2.77,6.94,4.5,4.5,0,0,0,.54,2.33,2.77,2.77,0,0,0,5,0,4.5,4.5,0,0,0,.54-2.33A11.36,11.36,0,0,0,109,111.1.36.36,0,0,0,108.46,111.1Z"/><path class="cls-6" d="M43.75,40.62l-26,26a5.88,5.88,0,0,0,0,8.32l7.9,7.9L55.81,52.68Z"/><path class="cls-6" d="M87.84,48.52l-7.9-7.9L55.81,64.75,67.87,76.81l20-20A5.88,5.88,0,0,0,87.84,48.52Z"/><path class="cls-6" d="M49.78,70.78,31.68,88.87l26,26a5.88,5.88,0,0,0,8.32,0l9.78-9.77a5.9,5.9,0,0,0,0-8.32Z"/><path class="cls-6" d="M73.9,34.59,66,26.69a5.88,5.88,0,0,0-8.32,0l-7.9,7.9L61.84,46.65Z"/><path class="cls-3" d="M45.75,36.62l-26,26a5.88,5.88,0,0,0,0,8.32l7.9,7.9L57.81,48.68Z"/><path class="cls-3" d="M89.84,44.52l-7.9-7.9L57.81,60.75,69.87,72.81l20-20A5.88,5.88,0,0,0,89.84,44.52Z"/><path class="cls-3" d="M51.78,66.78,33.68,84.87l26,26a5.88,5.88,0,0,0,8.32,0l9.78-9.77a5.9,5.9,0,0,0,0-8.32Z"/><path class="cls-3" d="M75.9,30.59,68,22.69a5.88,5.88,0,0,0-8.32,0l-7.9,7.9L63.84,42.65Z"/></g></g></g></svg>