<svg xmlns="http://www.w3.org/2000/svg" viewBox="0 0 142.94 30"><title>imagotype-dark</title><g id="Capa_2" data-name="Capa 2"><g id="Capa_2-2" data-name="Capa 2"><g id="imagotype-dark"><path d="M42.19,9.87a5.58,5.58,0,0,1,2.09,2.24A7.11,7.11,0,0,1,45,15.44a7.22,7.22,0,0,1-.76,3.35,5.51,5.51,0,0,1-2.09,2.26,5.79,5.79,0,0,1-3.07.8,6.07,6.07,0,0,1-2.35-.43,4,4,0,0,1-1.68-1.24V27h-3V9.45h2.48l.22,1.73a4.47,4.47,0,0,1,1.8-1.54,5.63,5.63,0,0,1,2.56-.57A5.81,5.81,0,0,1,42.19,9.87ZM41,18.11A3.77,3.77,0,0,0,42,15.47,3.77,3.77,0,0,0,41,12.81a3.48,3.48,0,0,0-4.9,0,3.77,3.77,0,0,0-.95,2.68,3.66,3.66,0,0,0,.94,2.64,3.51,3.51,0,0,0,4.91,0Z"/><path d="M46.55,3h3V21.5h-3Z"/><path d="M64,9.45V21.5H61.13V19.79a4.25,4.25,0,0,1-1.77,1.51,5.88,5.88,0,0,1-2.58.55,5.69,5.69,0,0,1-3-.78,5.35,5.35,0,0,1-2-2.22,7.42,7.42,0,0,1-.71-3.33,7.35,7.35,0,0,1,.75-3.38,5.43,5.43,0,0,1,2.1-2.27A6.05,6.05,0,0,1,57,9.07a6,6,0,0,1,2.47.5A4.31,4.31,0,0,1,61.26,11l.24-1.53Zm-4,8.64a3.75,3.75,0,0,0,1-2.67A3.74,3.74,0,0,0,60,12.77a3.25,3.25,0,0,0-2.48-1,3.21,3.21,0,0,0-2.47,1,3.78,3.78,0,0,0-.93,2.66,3.77,3.77,0,0,0,.94,2.67,3.46,3.46,0,0,0,4.91,0Z"/><path d="M65.53,18.87l6-6.78h-6V9.45h9.72v2.67l-6.07,6.7h6.07V21.5H65.53Z"/><path d="M94.06,10.27a4.45,4.45,0,0,1,1.2,3.29V21.5h-3V14.28a2.77,2.77,0,0,0-.61-1.94A2.15,2.15,0,0,0,90,11.7a2.35,2.35,0,0,0-1.86.76,2.88,2.88,0,0,0-.66,1.95V21.5h-3V14.28a2.75,2.75,0,0,0-.62-1.9,2.16,2.16,0,0,0-1.7-.68,2.22,2.22,0,0,0-1.77.77,2.86,2.86,0,0,0-.67,1.94V21.5h-3v-12h2.76l.15,1.3a3.71,3.71,0,0,1,1.47-1.23,4.76,4.76,0,0,1,4.35.16A3.49,3.49,0,0,1,87,11.34a3.88,3.88,0,0,1,1.56-1.67,4.55,4.55,0,0,1,2.36-.6A4.26,4.26,0,0,1,94.06,10.27Z"/><path d="M106.9,20.72A6.61,6.61,0,0,1,103,21.85,6.51,6.51,0,0,1,99.76,21a5.66,5.66,0,0,1-2.2-2.27,6.88,6.88,0,0,1-.79-3.35,6.8,6.8,0,0,1,.8-3.35,5.63,5.63,0,0,1,2.2-2.21A6.37,6.37,0,0,1,103,9.07a6.27,6.27,0,0,1,3.1.75,5.26,5.26,0,0,1,2.1,2,5.94,5.94,0,0,1,.73,3,6.86,6.86,0,0,1-.13,1.49h-9a3,3,0,0,0,1,2.21,3.29,3.29,0,0,0,2.34.84,3.76,3.76,0,0,0,1.86-.43A2.23,2.23,0,0,0,106,17.74h2.94A4.76,4.76,0,0,1,106.9,20.72Zm-1.08-6.44a2.66,2.66,0,0,0-.84-2,3,3,0,0,0-2.1-.73,3.21,3.21,0,0,0-2.18.75,2.65,2.65,0,0,0-.91,2Z"/><path d="M123.37,3V21.5h-2.52l-.21-1.76a4.1,4.1,0,0,1-1.74,1.54,6.17,6.17,0,0,1-5.63-.23,5.48,5.48,0,0,1-2.09-2.25,7.23,7.23,0,0,1-.75-3.36,7.11,7.11,0,0,1,.75-3.33,5.52,5.52,0,0,1,2.09-2.24,5.87,5.87,0,0,1,3-.8,6.06,6.06,0,0,1,2.36.43,4.17,4.17,0,0,1,1.69,1.22V3Zm-4,15.13a3.75,3.75,0,0,0,1-2.67,3.74,3.74,0,0,0-.93-2.65,3.58,3.58,0,0,0-4.95,0,3.78,3.78,0,0,0-.93,2.66,3.81,3.81,0,0,0,.94,2.67,3.46,3.46,0,0,0,4.91,0Z"/><path d="M125.47,6.51a1.92,1.92,0,0,1-.59-1.43,1.93,1.93,0,0,1,.59-1.44A2.11,2.11,0,0,1,127,3.07a2.06,2.06,0,0,1,1.5.57,2,2,0,0,1,.57,1.44,2,2,0,0,1-.59,1.42,2,2,0,0,1-1.48.59A2.07,2.07,0,0,1,125.47,6.51Zm0,2.94h3V21.5h-3Z"/><path d="M142.94,9.45V21.5h-2.89V19.79a4.19,4.19,0,0,1-1.77,1.51,5.88,5.88,0,0,1-2.58.55,5.63,5.63,0,0,1-3-.78,5.22,5.22,0,0,1-2-2.22,7.29,7.29,0,0,1-.72-3.33,7.22,7.22,0,0,1,.76-3.38,5.43,5.43,0,0,1,2.1-2.27,6.4,6.4,0,0,1,5.58-.3A4.45,4.45,0,0,1,140.19,11l.23-1.53Zm-4,8.64a3.79,3.79,0,0,0,.95-2.67,3.74,3.74,0,0,0-.93-2.65,3.56,3.56,0,0,0-4.94,0,3.78,3.78,0,0,0-.93,2.66,3.81,3.81,0,0,0,.93,2.67,3.2,3.2,0,0,0,2.44,1A3.23,3.23,0,0,0,138.93,18.09Z"/><path d="M9.08,5.13.56,13.64a1.93,1.93,0,0,0,0,2.72L3.15,19,13,9.08Z"/><path d="M23.51,7.71,20.92,5.13,13,13,17,17l6.54-6.54A1.94,1.94,0,0,0,23.51,7.71Z"/><path d="M11.05,15,5.13,20.92l8.51,8.52a1.93,1.93,0,0,0,2.72,0l3.2-3.2a1.94,1.94,0,0,0,0-2.73Z"/><path d="M19,3.15,16.36.56a1.93,1.93,0,0,0-2.72,0L11.05,3.15,15,7.1Z"/></g></g></g></svg>