<svg xmlns="http://www.w3.org/2000/svg" xmlns:xlink="http://www.w3.org/1999/xlink" viewBox="0 0 610.1 136.32"><defs><style>.cls-1{fill:#1e293b;}.cls-2{fill:#8332ed;}.cls-3{fill:url(#Degradado_sin_nombre_5);}.cls-4{fill:#fff;}</style><linearGradient id="Degradado_sin_nombre_5" x1="61.11" y1="137.03" x2="61.11" y2="-0.62" gradientUnits="userSpaceOnUse"><stop offset="0" stop-color="#9633ff"/><stop offset="1" stop-color="#c12bff"/></linearGradient></defs><title>imagotype-color</title><g id="Capa_2" data-name="Capa 2"><g id="Capa_2-2" data-name="Capa 2"><g id="imagotype-color"><g id="imagotype-dark"><path class="cls-1" d="M191,55.89a23.54,23.54,0,0,0-8.88-9.52A24.58,24.58,0,0,0,169.24,43a24.21,24.21,0,0,0-10.88,2.41,19.81,19.81,0,0,0-5.91,4.37,1.2,1.2,0,0,1-2.07-.68l-.45-3.42a1.21,1.21,0,0,0-1.2-1.06h-8.25a1.21,1.21,0,0,0-1.21,1.21v72.26a1.2,1.2,0,0,0,1.21,1.21h10.28a1.2,1.2,0,0,0,1.22-1.21V93.2a1.21,1.21,0,0,1,2-.89,17.61,17.61,0,0,0,5.1,3.1,25.74,25.74,0,0,0,10,1.86,24.8,24.8,0,0,0,13.05-3.4,23.45,23.45,0,0,0,8.88-9.6A30.63,30.63,0,0,0,194.22,70,30.12,30.12,0,0,0,191,55.89ZM177.16,81.36a14.92,14.92,0,0,1-20.87.11q-4-4.2-4-11.21t4-11.4a13.61,13.61,0,0,1,10.44-4.29,13.44,13.44,0,0,1,10.39,4.29q3.94,4.29,4,11.29A16,16,0,0,1,177.16,81.36Z"/><path class="cls-1" d="M212.26,17H201.85a1.21,1.21,0,0,0-1.21,1.21V94.54a1.21,1.21,0,0,0,1.21,1.21h10.41a1.21,1.21,0,0,0,1.21-1.21V18.25A1.21,1.21,0,0,0,212.26,17Z"/><path class="cls-1" d="M273.64,44.6h-8.46a1.23,1.23,0,0,0-1.2,1l-.44,2.82a1.19,1.19,0,0,1-2,.68,18.79,18.79,0,0,0-5.79-4A25.08,25.08,0,0,0,245.2,43,25.44,25.44,0,0,0,232,46.37,23,23,0,0,0,223.08,56a31.16,31.16,0,0,0-3.2,14.37,31.3,31.3,0,0,0,3,14.15,22.31,22.31,0,0,0,8.54,9.42,24.07,24.07,0,0,0,12.64,3.33A25.11,25.11,0,0,0,255,94.92a19.58,19.58,0,0,0,5.45-3.81,1.21,1.21,0,0,1,2.09.83v2.6a1.21,1.21,0,0,0,1.21,1.21h9.85a1.21,1.21,0,0,0,1.21-1.21V45.81A1.22,1.22,0,0,0,273.64,44.6ZM257.78,81.3a13.69,13.69,0,0,1-10.51,4.37,13.44,13.44,0,0,1-10.35-4.31q-4-4.32-4-11.32t3.95-11.29a15.08,15.08,0,0,1,21-.06q3.94,4.23,4,11.23T257.78,81.3Z"/><path class="cls-1" d="M322.23,56.27a1.2,1.2,0,0,0,.32-.81V45.81a1.22,1.22,0,0,0-1.22-1.21H282.47a1.21,1.21,0,0,0-1.21,1.21V54.6a1.21,1.21,0,0,0,1.21,1.21H304a1.21,1.21,0,0,1,.92,2L281.56,84.27a1.2,1.2,0,0,0-.3.8v9.47a1.21,1.21,0,0,0,1.21,1.21h38.86a1.21,1.21,0,0,0,1.22-1.21v-9a1.21,1.21,0,0,0-1.22-1.21H299.51a1.21,1.21,0,0,1-.89-2Z"/><path class="cls-1" d="M402.47,48.08c-3.41-3.41-7.86-5.1-13.39-5.1a19.41,19.41,0,0,0-10,2.52,16.63,16.63,0,0,0-5.55,5.26,1.21,1.21,0,0,1-2.06,0,14.94,14.94,0,0,0-5.39-5.16A19.51,19.51,0,0,0,356,43a19.12,19.12,0,0,0-8.42,1.9,16.38,16.38,0,0,0-4.54,3.17,1.21,1.21,0,0,1-2.05-.71l-.21-1.67a1.2,1.2,0,0,0-1.2-1.07h-9.42A1.21,1.21,0,0,0,329,45.81V94.54a1.21,1.21,0,0,0,1.21,1.21h10.4a1.22,1.22,0,0,0,1.22-1.21V65.67a12.24,12.24,0,0,1,2.83-8.24,9.42,9.42,0,0,1,7.52-3.31A9.25,9.25,0,0,1,359.39,57Q362,60,362,65.11V94.54a1.21,1.21,0,0,0,1.21,1.21h10.19a1.21,1.21,0,0,0,1.21-1.21V65.67a12.16,12.16,0,0,1,2.82-8.29,9.91,9.91,0,0,1,7.88-3.26,9.11,9.11,0,0,1,6.91,2.75q2.61,2.75,2.61,8.24V94.54a1.21,1.21,0,0,0,1.21,1.21h10.3a1.21,1.21,0,0,0,1.21-1.21V62Q407.57,53.17,402.47,48.08Z"/><path class="cls-1" d="M464,79.78H453.89a1.28,1.28,0,0,0-1.12.74,9.62,9.62,0,0,1-4.25,4.34,16.32,16.32,0,0,1-7.92,1.82,14.07,14.07,0,0,1-10-3.56,12.62,12.62,0,0,1-3.95-8,1.21,1.21,0,0,1,1.2-1.38h36a1.2,1.2,0,0,0,1.19-1,32.62,32.62,0,0,0,.37-5.31,24.88,24.88,0,0,0-3.14-12.6,22.5,22.5,0,0,0-8.88-8.66A26.89,26.89,0,0,0,440.26,43a27.23,27.23,0,0,0-13.52,3.33,24,24,0,0,0-9.37,9.41A28.82,28.82,0,0,0,414,69.92a29.51,29.51,0,0,0,3.34,14.26,24,24,0,0,0,9.36,9.65,27.58,27.58,0,0,0,13.92,3.44A27.86,27.86,0,0,0,457,92.44a20.18,20.18,0,0,0,8.17-11.08A1.23,1.23,0,0,0,464,79.78Zm-33.34-23.1a13.63,13.63,0,0,1,9.25-3.17,12.84,12.84,0,0,1,8.94,3.11,10.85,10.85,0,0,1,3.48,7.12,1.24,1.24,0,0,1-1.22,1.37h-23a1.22,1.22,0,0,1-1.2-1.4A11,11,0,0,1,430.67,56.68Z"/><path class="cls-1" d="M525.74,17H515.39a1.22,1.22,0,0,0-1.21,1.21V47a1.21,1.21,0,0,1-2,.92A18.55,18.55,0,0,0,507,44.8,26.07,26.07,0,0,0,497,43a24.74,24.74,0,0,0-12.91,3.39,23.5,23.5,0,0,0-8.89,9.52A30.35,30.35,0,0,0,472,70a30.79,30.79,0,0,0,3.18,14.26,23.44,23.44,0,0,0,8.89,9.57,26.23,26.23,0,0,0,23.9,1,18.35,18.35,0,0,0,5.66-4.22,1.2,1.2,0,0,1,2.09.67l.4,3.38a1.22,1.22,0,0,0,1.21,1.06h8.41A1.2,1.2,0,0,0,527,94.54V18.25A1.21,1.21,0,0,0,525.74,17ZM509.89,81.3a13.7,13.7,0,0,1-10.5,4.37A13.45,13.45,0,0,1,489,81.36q-4-4.32-4-11.32T489,58.75a13.58,13.58,0,0,1,10.5-4.29A13.75,13.75,0,0,1,510,58.69Q514,62.92,514,69.92C514,74.6,512.61,78.39,509.89,81.3Z"/><path class="cls-1" d="M548.69,19.9a8.65,8.65,0,0,0-6.35-2.41,8.94,8.94,0,0,0-6.45,2.41A8.06,8.06,0,0,0,533.37,26a8.21,8.21,0,0,0,2.52,6.1,8.81,8.81,0,0,0,6.45,2.46,8.53,8.53,0,0,0,6.27-2.52,8.22,8.22,0,0,0,2.52-6A8.18,8.18,0,0,0,548.69,19.9Zm-1.18,24.7h-10.4a1.22,1.22,0,0,0-1.22,1.21V94.54a1.21,1.21,0,0,0,1.22,1.21h10.4a1.21,1.21,0,0,0,1.21-1.21V45.81A1.21,1.21,0,0,0,547.51,44.6Z"/><path class="cls-1" d="M608.89,44.6h-8.45a1.22,1.22,0,0,0-1.2,1l-.44,2.84a1.2,1.2,0,0,1-2,.66,19,19,0,0,0-5.79-4A25.13,25.13,0,0,0,580.47,43a25.48,25.48,0,0,0-13.2,3.39A23,23,0,0,0,558.33,56a31.16,31.16,0,0,0-3.19,14.37,31.43,31.43,0,0,0,3,14.15,22.44,22.44,0,0,0,8.54,9.42,24.12,24.12,0,0,0,12.64,3.33,25.11,25.11,0,0,0,10.95-2.35,19.45,19.45,0,0,0,5.46-3.82,1.2,1.2,0,0,1,2.08.84v2.6A1.21,1.21,0,0,0,599,95.75h9.85a1.21,1.21,0,0,0,1.21-1.21V45.81A1.22,1.22,0,0,0,608.89,44.6ZM593,81.3a13.7,13.7,0,0,1-10.5,4.37,13.45,13.45,0,0,1-10.37-4.31q-4-4.32-4-11.32t3.95-11.29a15.08,15.08,0,0,1,21-.06q3.95,4.23,4,11.23T593,81.3Z"/></g><path class="cls-2" d="M593.07,105.79v1.48h2.72v7.44h1.64v-7.44h2.69v-1.48Z"/><path class="cls-2" d="M608.61,105.79l-2.93,6.86-2.87-6.86h-1.48v8.92h1.57v-2c0-1,0-2.15-.16-3.31l2.17,5h1.46l2.25-5.09c-.09,1.13-.14,2.25-.14,3.35v2h1.6v-8.92Z"/><path class="cls-3" d="M122.23,41.86v52.6a15.54,15.54,0,0,1-7.78,13.47L112.56,109l-.88.51-.17.1-13.72,7.92L95,119.14,68.9,134.23a15.51,15.51,0,0,1-15.56,0L7.78,107.93A15.56,15.56,0,0,1,0,94.46V41.86A15.55,15.55,0,0,1,7.78,28.39L53.34,2.08a15.61,15.61,0,0,1,15.56,0l45.55,26.31A15.53,15.53,0,0,1,122.23,41.86Z"/><path class="cls-2" d="M45,42.54,19.51,68.07a5.78,5.78,0,0,0,0,8.18L27.27,84,56.89,54.39Z"/><path class="cls-2" d="M88.35,50.3l-7.76-7.76-23.7,23.7L68.74,78.08,88.35,58.47A5.77,5.77,0,0,0,88.35,50.3Z"/><path class="cls-2" d="M51,72.16,33.19,89.93l25.54,25.54a5.79,5.79,0,0,0,8.17,0l9.6-9.6a5.78,5.78,0,0,0,0-8.18Z"/><path class="cls-2" d="M74.66,36.61,66.9,28.85a5.77,5.77,0,0,0-8.17,0L51,36.61,62.82,48.46Z"/><path class="cls-4" d="M47,38.54,21.51,64.07a5.78,5.78,0,0,0,0,8.18L29.27,80,58.89,50.39Z"/><path class="cls-4" d="M90.35,46.3l-7.76-7.76-23.7,23.7L70.74,74.08,90.35,54.47A5.77,5.77,0,0,0,90.35,46.3Z"/><path class="cls-4" d="M53,68.16,35.19,85.93l25.54,25.54a5.79,5.79,0,0,0,8.17,0l9.6-9.6a5.78,5.78,0,0,0,0-8.18Z"/><path class="cls-4" d="M76.66,32.61,68.9,24.85a5.77,5.77,0,0,0-8.17,0L53,32.61,64.82,44.46Z"/></g></g></g></svg>