<svg xmlns="http://www.w3.org/2000/svg" xmlns:xlink="http://www.w3.org/1999/xlink" viewBox="0 0 480 110.61"><defs><style>.cls-1{fill:#4d90bb;}.cls-2{fill:#49576b;}.cls-3{fill:url(#Degradado_sin_nombre_19);}.cls-4{fill:url(#Degradado_sin_nombre_19-2);}</style><linearGradient id="Degradado_sin_nombre_19" x1="21.02" y1="71.02" x2="21.02" y2="88.19" gradientUnits="userSpaceOnUse"><stop offset="0" stop-color="#4d90bb"/><stop offset="1" stop-color="#143d57"/></linearGradient><linearGradient id="Degradado_sin_nombre_19-2" x1="92.64" y1="83.55" x2="83.08" y2="89.14" xlink:href="#Degradado_sin_nombre_19"/></defs><title>Recurso 1</title><g id="Capa_2" data-name="Capa 2"><g id="Capa_1-2" data-name="Capa 1"><path class="cls-1" d="M51,0,0,27.46V83.93l9.31-5.8V33.25L51,10,92.7,33.25V78.13l9.32,5.8V27.46Z"/><polygon class="cls-2" points="59 94.62 59 106.24 51.01 110.61 43.02 106.24 43.02 94.62 59 94.62"/><polygon class="cls-1" points="87.23 92.01 78.46 96.8 76.66 95 72.2 90.54 51.12 69.47 29.97 90.62 24.48 96.11 15.72 91.32 25.55 81.49 51.12 55.91 80.96 85.75 87.23 92.01"/><polygon class="cls-2" points="75.48 46.85 51.01 23.78 26.53 46.85 25.54 53.38 51.01 39.32 76.47 53.38 75.48 46.85"/><polygon class="cls-3" points="26.33 80.72 15.72 91.32 15.72 64.4 26.32 64.4 26.33 80.72"/><polygon class="cls-4" points="102.02 83.93 87.23 92.01 80.19 84.97 92.7 78.13 102.02 83.93"/><path class="cls-2" d="M128.19,79.68c0,2.38-1.71,4.15-4.57,4.15h-5.94V69.42h5c2.55,0,4.11,1.55,4.11,3.65a3.38,3.38,0,0,1-1.4,2.83A3.76,3.76,0,0,1,128.19,79.68ZM119.39,71v4.47h3.08c1.68,0,2.53-.91,2.53-2.25S124.15,71,122.47,71Zm7,8.69c0-1.55-1-2.67-3-2.67h-4.06V82.3h4.06C125.39,82.3,126.44,81.21,126.44,79.64Z"/><path class="cls-2" d="M139.65,69.13a1.26,1.26,0,1,1-1.24-1.22A1.22,1.22,0,0,1,139.65,69.13Zm-.41,14.7h-1.68V73.2h1.68Z"/><path class="cls-2" d="M158.87,79h-8.39a3.75,3.75,0,0,0,3.89,3.49,4.47,4.47,0,0,0,3.25-1.44l1,1.13a5.73,5.73,0,0,1-4.26,1.86,5.56,5.56,0,0,1-.2-11.11,4.68,4.68,0,0,1,4.85,4.8A6.71,6.71,0,0,1,158.87,79Zm-8.32-1.49h6.72a3,3,0,0,0-3.16-3.06A3.59,3.59,0,0,0,150.55,77.54Z"/><path class="cls-2" d="M177.3,77.15v6.68h-1.68V77.34A2.57,2.57,0,0,0,173,74.51a2.71,2.71,0,0,0-2.8,2.83v6.49H168.5V73.2h1.57v1.15A4.23,4.23,0,0,1,173.35,73C175.86,73,177.3,74.68,177.3,77.15Z"/><path class="cls-2" d="M196.8,79h-8.39a3.76,3.76,0,0,0,3.89,3.49,4.51,4.51,0,0,0,3.26-1.44l1,1.13a5.71,5.71,0,0,1-4.26,1.86,5.56,5.56,0,0,1-.2-11.11,4.68,4.68,0,0,1,4.85,4.8A6.71,6.71,0,0,1,196.8,79Zm-8.32-1.49h6.73A3,3,0,0,0,192,74.48,3.59,3.59,0,0,0,188.48,77.54Z"/><path class="cls-2" d="M213.2,74.64l-1,1a3.6,3.6,0,0,0-2.62-1.18c-1,0-1.76.45-1.76,1.33,0,.72.54,1.07,1.72,1.55l1,.41c1.93.81,2.82,1.64,2.82,3.15,0,2.07-1.77,3.12-3.73,3.12A5.13,5.13,0,0,1,205.43,82l1.07-1.12a4.17,4.17,0,0,0,3.05,1.64c1.12,0,2-.55,2-1.51s-.78-1.26-1.85-1.7l-1-.44c-1.61-.67-2.64-1.42-2.64-2.94,0-1.93,1.64-3,3.58-3A4.42,4.42,0,0,1,213.2,74.64Z"/><path class="cls-2" d="M241.22,73.2v1.48h-.63a3.12,3.12,0,0,0-3.35,3.12v6h-1.68V73.2h1.57v1.52a4.15,4.15,0,0,1,3.3-1.61A3.24,3.24,0,0,1,241.22,73.2Z"/><path class="cls-2" d="M257.77,77.28v6.55H256.2V82.45a4.27,4.27,0,0,1-3.58,1.62c-2.14,0-3.71-1.14-3.71-3s1.5-3,3.82-3h3.36v-.92a2.38,2.38,0,0,0-2.58-2.68,3.76,3.76,0,0,0-3.1,1.7l-1.11-.92A4.92,4.92,0,0,1,253.62,73C256.05,73,257.77,74.42,257.77,77.28Zm-1.68,2.47v-.27h-3.17c-1.48,0-2.29.51-2.29,1.51s1,1.68,2.21,1.68A3.1,3.1,0,0,0,256.09,79.75Z"/><path class="cls-2" d="M269.56,83.83h-1.68V73.2h1.68Zm1.75-16.73-2,4.37h-1.29l1.22-4.67h2Z"/><path class="cls-2" d="M289,75.27l-1.2,1a4,4,0,1,0,0,4.59l1.2.94a5.17,5.17,0,0,1-4.37,2.31,5.56,5.56,0,1,1,0-11.11A5.15,5.15,0,0,1,289,75.27Z"/><path class="cls-2" d="M307.56,79h-8.38a3.75,3.75,0,0,0,3.88,3.49,4.5,4.5,0,0,0,3.26-1.44l1,1.13A5.71,5.71,0,0,1,303,84.07a5.56,5.56,0,0,1-.2-11.11,4.68,4.68,0,0,1,4.85,4.8A6,6,0,0,1,307.56,79Zm-8.32-1.49H306a3,3,0,0,0-3.17-3.06A3.59,3.59,0,0,0,299.24,77.54Z"/><path class="cls-2" d="M324,74.64l-1,1a3.64,3.64,0,0,0-2.62-1.18c-1,0-1.77.45-1.77,1.33,0,.72.54,1.07,1.72,1.55l1,.41c1.93.81,2.82,1.64,2.82,3.15,0,2.07-1.77,3.12-3.73,3.12A5.13,5.13,0,0,1,316.19,82l1.07-1.12a4.17,4.17,0,0,0,3.06,1.64c1.11,0,2-.55,2-1.51s-.79-1.26-1.86-1.7l-1-.44c-1.61-.67-2.64-1.42-2.64-2.94,0-1.93,1.64-3,3.58-3A4.42,4.42,0,0,1,324,74.64Z"/><path class="cls-2" d="M149.28,32.69l-3.16,2.47a13.43,13.43,0,0,0-11.26-5.84c-8.2,0-14,6.22-14,14.36s6,14.58,14.26,14.58a13.67,13.67,0,0,0,11.79-6.32V47.17H134.81V43.42h16.24v9.43A18.43,18.43,0,0,1,134.86,62a18.28,18.28,0,1,1,0-36.56A17.43,17.43,0,0,1,149.28,32.69Z"/><path class="cls-2" d="M178.82,61.43l-11-14.85h-7.56V61.43h-4.18V26.05h12.43c7,0,11.31,4.29,11.31,10.24a9.83,9.83,0,0,1-7.39,9.81l11.25,15.33Zm-18.55-18.6h8.09c4.67,0,7.13-2.68,7.13-6.49S173,29.8,168.36,29.8h-8.09Z"/><path class="cls-2" d="M213.28,47.38c0,9.44-6,14.64-14,14.64-8.15,0-14.1-5.2-14.1-14.64V26.05h4.18v21.6c0,7.13,4.4,10.51,9.92,10.51s9.81-3.38,9.81-10.51V26.05h4.18Z"/><path class="cls-2" d="M243.67,36.29c0,6-4.34,10.34-11.31,10.34h-8.25v14.8h-4.18V26.05h12.43C239.33,26.05,243.67,30.34,243.67,36.29ZM224.11,29.8V42.88h8.15c4.66,0,7.07-2.73,7.07-6.54s-2.41-6.54-7.07-6.54Z"/><path class="cls-2" d="M282.37,43.74A18.36,18.36,0,1,1,264,25.46,18.19,18.19,0,0,1,282.37,43.74ZM250,43.68c0,8.26,5.95,14.48,14,14.48s14-6.22,14-14.48-6-14.36-14-14.36S250,35.48,250,43.68Z"/><path class="cls-2" d="M325.25,32.59H313.89V61.43h-7.24V32.59H295.34V26.05h29.91Z"/><path class="cls-2" d="M361.7,43.74c0,10.4-8.47,18.33-18.87,18.33s-18.76-7.93-18.76-18.33,8.36-18.34,18.76-18.34S361.7,33.34,361.7,43.74Zm-30.18,0c0,6.86,4.77,11.63,11.37,11.63s11.36-4.77,11.36-11.63S349.37,32.1,342.89,32.1,331.52,36.93,331.52,43.74Z"/><path class="cls-2" d="M386.84,61.43l-9.17-12.49h-5.3V61.43h-7.24V26.05h13.3c7.45,0,12.75,4.5,12.75,11.42a10.86,10.86,0,0,1-6.21,10l10,13.94ZM372.37,42.56h6.06c3.37,0,5.36-2,5.36-5.09s-2-5-5.36-5h-6.06Z"/><path class="cls-2" d="M418.46,61.43,409.3,48.94H404V61.43h-7.24V26.05h13.3c7.45,0,12.76,4.5,12.76,11.42a10.85,10.85,0,0,1-6.22,10l10,13.94ZM404,42.56h6.06c3.38,0,5.36-2,5.36-5.09s-2-5-5.36-5H404Z"/><path class="cls-2" d="M452.18,32.59H435.62v7.18h12.17v6.16H435.62v9h17.2v6.54H428.38V26.05h23.8Z"/><path class="cls-2" d="M479.2,32.1l-4.94,3.81c-1.71-2.57-3.86-4.07-6.75-4.07-2.36,0-4.4,1.07-4.4,3.43,0,2,1.56,2.89,4.13,4.07l4,1.77c5.58,2.47,8.74,5.31,8.74,10.35,0,6.59-5.36,10.61-12.38,10.61A15.28,15.28,0,0,1,454,54.24l5-3.75c1.93,2.68,4.45,5.15,8.69,5.15,3.11,0,5-1.45,5-3.92,0-2.3-1.72-3.11-4.51-4.39l-3.8-1.72c-5-2.3-8.58-5.2-8.58-10.18,0-6.11,5.09-10,11.74-10A12.78,12.78,0,0,1,479.2,32.1Z"/></g></g></svg>