<svg xmlns="http://www.w3.org/2000/svg" xmlns:xlink="http://www.w3.org/1999/xlink" viewBox="0 0 690 171.4"><defs><style>.cls-1{fill:url(#Degradado_sin_nombre_5);}.cls-2{fill:#220047;}.cls-3{fill:#8332ed;}.cls-4{fill:#fff;}.cls-5{fill:#7b05e2;}</style><linearGradient id="Degradado_sin_nombre_5" x1="60.9" y1="156.4" x2="88.85" y2="32.44" gradientUnits="userSpaceOnUse"><stop offset="0" stop-color="#9633ff"/><stop offset="1" stop-color="#c12bff"/></linearGradient></defs><title>Recurso 3</title><g id="Capa_2" data-name="Capa 2"><g id="isologo-color"><path class="cls-1" d="M0,52.63v66.14a19.56,19.56,0,0,0,9.78,16.94l57.28,33.07a19.53,19.53,0,0,0,19.56,0l57.28-33.07a19.56,19.56,0,0,0,9.78-16.94V52.63a19.57,19.57,0,0,0-9.78-16.94L86.62,2.62a19.58,19.58,0,0,0-19.56,0L9.78,35.69A19.57,19.57,0,0,0,0,52.63Z"/><g id="imagotype-dark"><path class="cls-2" d="M229.38,62.25a25.39,25.39,0,0,1,9.56,10.25,32.29,32.29,0,0,1,3.47,15.22A32.84,32.84,0,0,1,238.94,103a25.32,25.32,0,0,1-9.56,10.34,26.78,26.78,0,0,1-14,3.65,28,28,0,0,1-10.74-2,18.26,18.26,0,0,1-7.66-5.67v31.35H183.26V60.35h11.33l1,7.9a20.41,20.41,0,0,1,8.2-7.06,26,26,0,0,1,11.7-2.59A26.44,26.44,0,0,1,229.38,62.25ZM224.05,99.9q4.24-4.64,4.25-12.06t-4.25-12.15a14.52,14.52,0,0,0-11.19-4.61,14.69,14.69,0,0,0-11.24,4.61Q197.3,80.31,197.31,88T201.59,100a16,16,0,0,0,22.46-.12Z"/><path class="cls-2" d="M249.31,30.68h13.81V115.4H249.31Z"/><path class="cls-2" d="M329.18,60.35V115.4H316v-7.78a19.33,19.33,0,0,1-8.11,6.87A26.82,26.82,0,0,1,296.08,117a25.79,25.79,0,0,1-13.6-3.59,24.05,24.05,0,0,1-9.2-10.13A33.78,33.78,0,0,1,270,88.08a33.52,33.52,0,0,1,3.43-15.46,24.89,24.89,0,0,1,9.62-10.37,27.42,27.42,0,0,1,14.2-3.65,27,27,0,0,1,11.31,2.29,19.52,19.52,0,0,1,8,6.45l1.08-7ZM310.82,99.84q4.37-4.7,4.37-12.24t-4.25-12.09a16.24,16.24,0,0,0-22.61.06q-4.26,4.62-4.25,12.15t4.28,12.18a14.45,14.45,0,0,0,11.15,4.65A14.74,14.74,0,0,0,310.82,99.84Z"/><path class="cls-2" d="M336.08,103.4l27.32-31H336.08V60.35h44.44V72.53l-27.73,30.63h27.73V115.4H336.08Z"/><path class="cls-2" d="M466.54,64.09q5.49,5.47,5.48,15v36.3H458.34v-33c0-3.93-.94-6.89-2.81-8.86a9.78,9.78,0,0,0-7.44-3,10.59,10.59,0,0,0-8.47,3.5A13,13,0,0,0,436.57,83V115.4H423v-33c0-3.69-.94-6.59-2.83-8.68a10,10,0,0,0-7.78-3.13,10.13,10.13,0,0,0-8.11,3.56,13.13,13.13,0,0,0-3,8.86V115.4H387.43v-55H400l.72,5.91a16.84,16.84,0,0,1,6.73-5.61,20.56,20.56,0,0,1,9.07-2,21.08,21.08,0,0,1,10.8,2.77,16.14,16.14,0,0,1,6.87,7.6,18,18,0,0,1,7.12-7.66,21,21,0,0,1,10.79-2.71Q461.05,58.6,466.54,64.09Z"/><path class="cls-2" d="M525.24,111.84A30.06,30.06,0,0,1,507.57,117a29.64,29.64,0,0,1-15-3.71A25.78,25.78,0,0,1,482.52,103a31.89,31.89,0,0,1-3.59-15.35,30.87,30.87,0,0,1,3.65-15.28,25.69,25.69,0,0,1,10.07-10.13,29.34,29.34,0,0,1,14.56-3.59A28.83,28.83,0,0,1,521.41,62,24.2,24.2,0,0,1,531,71.32a26.87,26.87,0,0,1,3.38,13.57,32.22,32.22,0,0,1-.61,6.81H492.5a13.86,13.86,0,0,0,4.37,10.1,15.08,15.08,0,0,0,10.7,3.83,17.48,17.48,0,0,0,8.53-2A10.27,10.27,0,0,0,521,98.21h13.44A21.7,21.7,0,0,1,525.24,111.84Zm-5-29.43a12,12,0,0,0-3.83-9.13,13.79,13.79,0,0,0-9.61-3.35,14.62,14.62,0,0,0-10,3.41,12.13,12.13,0,0,0-4.16,9.07Z"/><path class="cls-2" d="M600.52,30.68V115.4H589l-1-8a18.7,18.7,0,0,1-8,7.05,26.32,26.32,0,0,1-11.82,2.6,26.66,26.66,0,0,1-13.9-3.65,25.16,25.16,0,0,1-9.56-10.31,33.15,33.15,0,0,1-3.43-15.35A32.64,32.64,0,0,1,544.8,72.5a25.18,25.18,0,0,1,9.56-10.25,26.66,26.66,0,0,1,13.9-3.65,28,28,0,0,1,10.79,2,19,19,0,0,1,7.72,5.58V30.68ZM582.16,99.84q4.37-4.7,4.37-12.24t-4.25-12.09a16.24,16.24,0,0,0-22.61.06c-2.83,3.08-4.26,7.13-4.26,12.15s1.43,9.09,4.29,12.18a14.45,14.45,0,0,0,11.15,4.65A14.74,14.74,0,0,0,582.16,99.84Z"/><path class="cls-2" d="M610.13,46.9a8.86,8.86,0,0,1-2.71-6.57,8.73,8.73,0,0,1,2.71-6.57,9.65,9.65,0,0,1,6.94-2.6,9.3,9.3,0,0,1,6.84,2.6,9.34,9.34,0,0,1-.08,13.08,9.19,9.19,0,0,1-6.76,2.72A9.53,9.53,0,0,1,610.13,46.9Zm0,13.45H624V115.4H610.13Z"/><path class="cls-2" d="M690,60.35V115.4H676.8v-7.78a19.39,19.39,0,0,1-8.11,6.87A26.89,26.89,0,0,1,656.9,117a25.79,25.79,0,0,1-13.6-3.59,24.12,24.12,0,0,1-9.2-10.13,33.91,33.91,0,0,1-3.25-15.23,33.52,33.52,0,0,1,3.44-15.46,24.83,24.83,0,0,1,9.62-10.37,27.42,27.42,0,0,1,14.2-3.65,27,27,0,0,1,11.3,2.29,19.46,19.46,0,0,1,8,6.45l1.09-7ZM671.64,99.84Q676,95.14,676,87.6t-4.25-12.09a16.24,16.24,0,0,0-22.61.06q-4.24,4.62-4.25,12.15t4.28,12.18a14.47,14.47,0,0,0,11.16,4.65A14.71,14.71,0,0,0,671.64,99.84Z"/></g><path class="cls-3" d="M58.15,54.7,26.93,85.92a7.06,7.06,0,0,0,0,10l9.49,9.49L72.64,69.19Z"/><path class="cls-3" d="M111.1,64.19l-9.49-9.49-29,29L87.12,98.16l24-24A7.06,7.06,0,0,0,111.1,64.19Z"/><path class="cls-3" d="M65.39,90.92,43.66,112.65l31.23,31.22a7.06,7.06,0,0,0,10,0l11.74-11.74a7.06,7.06,0,0,0,0-10Z"/><path class="cls-3" d="M94.37,47.46,84.88,38a7.07,7.07,0,0,0-10,0l-9.49,9.49L79.88,61.94Z"/><path class="cls-4" d="M60.76,49.49,29.54,80.71a7.06,7.06,0,0,0,0,10L39,100.19,75.25,64Z"/><path class="cls-4" d="M113.71,59l-9.49-9.49-29,29L89.73,93l24-24A7.06,7.06,0,0,0,113.71,59Z"/><path class="cls-4" d="M68,85.7,46.27,107.43l31.22,31.22a7.07,7.07,0,0,0,10,0l11.73-11.73a7.07,7.07,0,0,0,0-10Z"/><path class="cls-4" d="M97,42.24l-9.49-9.49a7.07,7.07,0,0,0-10,0L68,42.24,82.49,56.73Z"/><path class="cls-5" d="M678.81,127.08h-3v8.36H674v-8.36h-3.06v-1.66h7.92Z"/><path class="cls-5" d="M690,125.42v10h-1.8v-2.23c0-1.25,0-2.5.16-3.77l-2.53,5.72h-1.65l-2.42-5.67c.11,1.3.17,2.54.17,3.72v2.23h-1.77v-10h1.67l3.22,7.71,3.29-7.71Z"/></g></g></svg>